<?xml version="1.0" encoding="utf-8"?>
<!-- Generator: Adobe Illustrator 24.3.0, SVG Export Plug-In . SVG Version: 6.00 Build 0)  -->
<svg version="1.1" id="Layer_1" xmlns="http://www.w3.org/2000/svg" xmlns:xlink="http://www.w3.org/1999/xlink" x="0px" y="0px"
	 viewBox="0 0 99.1 33" style="enable-background:new 0 0 99.1 33;" xml:space="preserve">
<style type="text/css">
	.st0{fill:#2A6171;}
	.st1{fill:url(#XMLID_3_);}
</style>
<g>
	<g id="XMLID_570_">
		<g id="XMLID_682_">
			<g>
				<path id="XMLID_113_" class="st0" d="M37.6,18.2l0.8-1.7c1,0.8,2.5,1.3,4,1.3c1.9,0,2.7-0.7,2.7-1.6c0-2.6-7.1-0.9-7.1-5.3
					c0-1.9,1.5-3.6,4.8-3.6c1.4,0,2.9,0.4,4,1.1L46,10.1c-1.1-0.6-2.3-0.9-3.3-0.9c-1.8,0-2.6,0.7-2.6,1.6c0,2.5,7.1,0.9,7.1,5.3
					c0,1.9-1.6,3.6-4.8,3.6C40.5,19.6,38.6,19,37.6,18.2z"/>
				<path id="XMLID_111_" class="st0" d="M49.2,6.7h2.1v12.7h-2.1V6.7z"/>
				<path id="XMLID_108_" class="st0" d="M61.8,14.1v5.4h-2v-1.1c-0.5,0.8-1.5,1.2-2.9,1.2c-2.1,0-3.4-1.1-3.4-2.7
					c0-1.5,1-2.7,3.8-2.7h2.4V14c0-1.2-0.8-2-2.3-2c-1,0-2.1,0.3-2.8,0.9l-0.8-1.6c1-0.8,2.4-1.1,3.9-1.1
					C60.3,10.2,61.8,11.4,61.8,14.1z M59.6,16.6v-1.1h-2.2c-1.5,0-1.8,0.5-1.8,1.2c0,0.8,0.7,1.3,1.7,1.3
					C58.4,18,59.3,17.5,59.6,16.6z"/>
				<path id="XMLID_106_" class="st0" d="M63.5,18.5l0.8-1.6c0.8,0.5,2,0.9,3.2,0.9c1.4,0,1.9-0.4,1.9-1c0-1.7-5.6-0.1-5.6-3.7
					c0-1.7,1.6-2.9,4-2.9c1.2,0,2.6,0.3,3.4,0.8l-0.8,1.6c-0.9-0.5-1.7-0.7-2.6-0.7c-1.3,0-1.9,0.4-1.9,1c0,1.8,5.6,0.2,5.6,3.8
					c0,1.7-1.6,2.8-4.1,2.8C65.8,19.5,64.3,19.1,63.5,18.5z"/>
				<path id="XMLID_104_" class="st0" d="M84.2,7.5v12h-2.2v-5.1h-6.2v5.1h-2.2v-12h2.2v4.9h6.2V7.5H84.2z"/>
				<path id="XMLID_101_" class="st0" d="M95.2,19.4l-2.4-3.5c-0.2,0-0.3,0-0.5,0h-2.7v3.5h-2.2v-12h4.9c3.1,0,5.1,1.6,5.1,4.3
					c0,1.8-0.9,3.1-2.5,3.8l2.8,3.9H95.2z M92.2,9.3h-2.6v4.8h2.6c1.9,0,3-0.9,3-2.4C95.2,10.2,94.2,9.3,92.2,9.3z"/>
			</g>
		</g>
		<g id="XMLID_571_">
			<path id="XMLID_680_" class="st0" d="M39.8,25.8v0.4h-2.2v-2.9h2.1v0.4h-1.6v0.7h1.4V25h-1.4v0.8H39.8z"/>
			<path id="XMLID_678_" class="st0" d="M43.2,23.4L42,26.2h-0.5l-1.3-2.9h0.6l1,2.2l1-2.2H43.2z"/>
			<path id="XMLID_676_" class="st0" d="M45.9,25.8v0.4h-2.2v-2.9h2.1v0.4h-1.6v0.7h1.4V25h-1.4v0.8H45.9z"/>
			<path id="XMLID_673_" class="st0" d="M48.6,26.2L48,25.4c0,0-0.1,0-0.1,0h-0.6v0.8h-0.5v-2.9h1.2c0.8,0,1.2,0.4,1.2,1
				c0,0.4-0.2,0.8-0.6,0.9l0.7,0.9H48.6z M47.9,23.8h-0.6v1.1h0.6c0.5,0,0.7-0.2,0.7-0.6C48.6,24,48.4,23.8,47.9,23.8z"/>
			<path id="XMLID_671_" class="st0" d="M51.2,25.2v1h-0.5v-1l-1.1-1.9h0.6l0.8,1.4l0.8-1.4h0.5L51.2,25.2z"/>
			<path id="XMLID_668_" class="st0" d="M52.6,24.8c0-0.8,0.7-1.5,1.5-1.5c0.9,0,1.5,0.6,1.5,1.5s-0.7,1.5-1.5,1.5
				C53.2,26.3,52.6,25.6,52.6,24.8z M55.2,24.8c0-0.6-0.4-1-1-1c-0.6,0-1,0.4-1,1c0,0.6,0.4,1,1,1C54.7,25.8,55.2,25.4,55.2,24.8z"
				/>
			<path id="XMLID_666_" class="st0" d="M59.1,23.4v2.9h-0.4L57,24.3v1.9h-0.5v-2.9h0.4l1.6,1.9v-1.9H59.1z"/>
			<path id="XMLID_664_" class="st0" d="M62.2,25.8v0.4h-2.2v-2.9h2.1v0.4h-1.6v0.7H62V25h-1.4v0.8H62.2z"/>
			<path id="XMLID_662_" class="st0" d="M67,23.4v2.9h-0.5V25H65v1.2h-0.5v-2.9H65v1.2h1.5v-1.2H67z"/>
			<path id="XMLID_659_" class="st0" d="M69.9,25.6h-1.4l-0.3,0.7h-0.6l1.3-2.9h0.5l1.3,2.9h-0.6L69.9,25.6z M69.7,25.1l-0.5-1.3
				l-0.5,1.3H69.7z"/>
			<path id="XMLID_657_" class="st0" d="M71.1,25.9l0.2-0.4c0.2,0.2,0.6,0.3,0.9,0.3c0.4,0,0.6-0.2,0.6-0.4c0-0.6-1.7-0.2-1.7-1.3
				c0-0.5,0.4-0.9,1.2-0.9c0.3,0,0.7,0.1,1,0.3L73.1,24c-0.3-0.2-0.5-0.2-0.8-0.2c-0.4,0-0.6,0.2-0.6,0.4c0,0.6,1.7,0.2,1.7,1.3
				c0,0.5-0.4,0.9-1.2,0.9C71.8,26.3,71.3,26.1,71.1,25.9z"/>
			<path id="XMLID_641_" class="st0" d="M77.4,25.6H76l-0.3,0.7h-0.6l1.3-2.9H77l1.3,2.9h-0.6L77.4,25.6z M77.2,25.1l-0.5-1.3
				l-0.5,1.3H77.2z"/>
			<path id="XMLID_583_" class="st0" d="M80.8,23.8h-1v-0.5h2.4v0.5h-1v2.4h-0.5V23.8z"/>
			<path id="XMLID_580_" class="st0" d="M84.7,25.6h-1.4L83,26.2h-0.6l1.3-2.9h0.5l1.3,2.9H85L84.7,25.6z M84.5,25.1L84,23.9
				l-0.5,1.3H84.5z"/>
			<path id="XMLID_578_" class="st0" d="M86.1,23.4h0.5v2.4h1.5v0.5h-2V23.4z"/>
			<path id="XMLID_576_" class="st0" d="M91,25.8v0.4h-2.2v-2.9h2.1v0.4h-1.6v0.7h1.4V25h-1.4v0.8H91z"/>
			<path id="XMLID_574_" class="st0" d="M94.4,23.4v2.9H94l-1.6-1.9v1.9h-0.5v-2.9h0.4l1.6,1.9v-1.9H94.4z"/>
			<path id="XMLID_572_" class="st0" d="M96,23.8h-1v-0.5h2.4v0.5h-1v2.4H96V23.8z"/>
		</g>
	</g>
	<g id="XMLID_1_">
		<path id="XMLID_303_" class="st0" d="M24.6,8L21.9,11l2.6-3.1l0,0c-1.3-0.4-2.6-0.6-4.2-0.7c-0.7,0-1.3,0.2-2,0.6
			c-0.9,0.5-1.4,1.2-1.5,2.1c-0.3,1.2,0.6,2.4,2.4,3.4c0,0,0.1,0,0.1,0.1c0,0,0,0,0,0l0,0c0.2,0.1,0.5,0.4,0.6,0.4l0,0
			c1.1,0.7,3.3,2.2,3.8,2.9c1.2,1.5,1.8,3.3,1.6,5.4c-0.2,2.5-1.4,4.7-3.6,6.6c-1.8,1.5-4.1,2.3-6.9,2.3c-1.5,0-3.1-0.3-4.7-0.8
			c-0.5-0.1-1.1-0.3-1.9-0.6l0,0c0,0-1.3,0.6-3.1,1.6c1.2,0.8,2.7,1.3,4.2,1.3h15c4.2,0,7.7-3.5,7.7-7.7v-6.6L24.6,8z"/>
		<path id="XMLID_692_" class="st0" d="M31.9,8.2c0-2.1-0.8-4-2.2-5.4C29.4,3.1,29,3.5,28.5,4c0,0,0,0,0,0l-3.7,3.8l0,0L24.6,8
			l7.3,10.2V8.2z"/>
		<path id="XMLID_690_" class="st0" d="M15.4,17.5l-1.1-0.6c-0.7-0.4-1.1-0.7-1.4-0.9c-1.2-1.3-1.7-2.5-1.7-3.9
			c-0.1-4.5,2.9-7,3.7-7.6c2-1.5,4.2-2.3,6.7-2.3c1.2,0,2.5,0.2,4.1,0.6c1,0.3,1.8,0.6,2.4,0.9c0,0,0,0,0,0c0.4-0.1,1.1-0.6,1.6-1
			c-1.4-1.4-3.3-2.2-5.4-2.2h-15C5,0.5,1.5,3.9,1.5,8.2v16.6c0,2.5,1.2,4.8,3.1,6.2l5.6-5.1v0l0.8-0.8c1.3,0.4,2.6,0.6,3.9,0.6
			c1.2,0,2.3-0.3,3.1-0.8c1-0.6,1.5-1.5,1.5-2.6c0-1.5-2-3.3-3.4-4.2l-3.5,3.8L16,18c0,0,0,0,0,0l3.9-4.2c0,0-0.4-0.3-0.6-0.4
			L15.4,17.5z"/>
		<linearGradient id="XMLID_3_" gradientUnits="userSpaceOnUse" x1="18.024" y1="23.7945" x2="35.2574" y2="10.0763">
			<stop  offset="0" style="stop-color:#FFFFFF;stop-opacity:0"/>
			<stop  offset="0.2691" style="stop-color:#FCFEFE;stop-opacity:0.2691"/>
			<stop  offset="0.4353" style="stop-color:#F4FBFA;stop-opacity:0.4353"/>
			<stop  offset="0.5737" style="stop-color:#E5F5F4;stop-opacity:0.5737"/>
			<stop  offset="0.6967" style="stop-color:#D1EDEB;stop-opacity:0.6967"/>
			<stop  offset="0.8096" style="stop-color:#B6E3DF;stop-opacity:0.8096"/>
			<stop  offset="0.9136" style="stop-color:#96D7D1;stop-opacity:0.9136"/>
			<stop  offset="1" style="stop-color:#75CAC3"/>
		</linearGradient>
		<path id="XMLID_693_" class="st1" d="M24.6,8L21.9,11l2.6-3.1l0,0c-1.3-0.4-2.6-0.6-4.2-0.7c-0.7,0-1.3,0.2-2,0.6
			c-0.9,0.5-1.4,1.2-1.5,2.1c-0.3,1.2,0.6,2.4,2.4,3.4c0,0,0.1,0,0.1,0.1c0,0,0,0,0,0l0,0c0.2,0.1,0.5,0.4,0.6,0.4l0,0
			c1.1,0.7,3.3,2.2,3.8,2.9c1.2,1.5,1.8,3.3,1.6,5.4c-0.2,2.5-1.4,4.7-3.6,6.6c-1.8,1.5-4.1,2.3-6.9,2.3c-1.5,0-3.1-0.3-4.7-0.8
			c-0.5-0.1-1.1-0.3-1.9-0.6l0,0c0,0-1.3,0.6-3.1,1.6c1.2,0.8,2.7,1.3,4.2,1.3h15c4.2,0,7.7-3.5,7.7-7.7v-6.6L24.6,8z"/>
	</g>
</g>
</svg>
